<svg xmlns="http://www.w3.org/2000/svg" width="164" height="109" xmlns:v="https://vecta.io/nano"><path d="M116.964 34c1.119 0 1.214 1.142 1.214 1.142v24.454c-.043 1.216 1.192 1.26 1.305 1.237 1.252-.065 1.166-1.19 1.166-1.19v-1.665l1.352-.475v1.76c0 4.616-5.316 4.662-5.316 4.662-1.894.024-2.471-1.721-2.471-2.283V41.652c.001-.094-.023-1.039-1.26-1.039-1.322 0-1.212 1.142-1.212 1.142v9.658l-3.917 1.332c.116-1.85-.855-2.039-1.193-2.049h-.07l-.043.003c-.828 0-1.399 1.142-1.399 1.142-1.053 1.976-3.809 3.036-4.503 3.276l-.119.04-.042.013-2.751.904c-.839.238-1.726.334-1.726.334-2.556.127-3.684-2.55-3.684-3.426v-3.996c0-1.903-1.632-1.427-1.632-1.427s-.59.041-1.725 1.047c-.465.455-.84.333-.84.333l-.116-.039c-.437-.198-.989-.946-1.097-1.055-.786-1.052-1.327-1.135-1.427-1.141h-.017c-.747-.048-1.259.713-1.259.713-.652.825-.444 1.605-.047 1.951l4.663 3.521c1.041.925 1.235 2.214 1.212 2.949.05 2.49-2.043 3.375-2.844 3.71-.18.091-1.863.634-3.543 1.168l-.558.177-2.987.94c.42-1.999-1.057-2.094-1.166-2.094-.598-.05-1.073.666-1.073.666-1.597 2.495-4.246 3.579-4.337 3.616-.57.327-7.507 2.474-7.507 2.474.207-1.912-.959-2.041-1.212-2.047h-.047c-.608-.048-.822.27-.886.381l-1.539 2.617c-.813 1.408-1.725.998-1.725.998s-.74-.175-1.586-1.332-1.79-.531-1.911-.428c-1.965 1.608-2.518 5.494-2.518 6.279v11.562L50.047 86V72.964c-.047-2.093-1.544-1.604-1.727-1.522s-2.937 1.618-2.937 1.618c-1.119.618-1.818.618-1.818.618-2.378.048-2.518-2.284-2.518-2.284L41 48.178c0-3.569 3.197-4.832 3.451-4.948s6.372-2.026 7.834-2.474 3.358 1.331 3.358 3.283v5.757l-4.943 1.57V46.37c0-1.57-1.406-1.702-1.772-1.57l-2.098.761c-1.691.773-1.819 2.998-1.819 2.998v19.696c0 1.38 1.119 1.332 1.119 1.332 4.571 0 4.356-7.048 4.477-8.611l.023-2.282.004-.517.018-2.273.001-.066 3.927-1.423-.026 8.856c.006 1.248.557 1.539.817 1.532 2.047.107 2.604-7.164 2.604-7.777v-3.663l4.01-1.284v9.039c.144 1.395 1.734 1.395 2.192.761 1.571-2.196 1.819-7.898 1.819-7.898l-.047-17.555 4.104-1.618v.245.105.262l-.001.516-.001.421-.022 9.304-.002.88-.001.442-.002.885-.002.884-.015 8.288v.605.285 2.089.123l.001.192.001.119c0 .204.286 1.884 2.005 1.903 1.916-.034 2.002-1.769 2.005-2.016v-8.07c0-1.665-1.258-1.475-1.258-1.475v-2.331c.932-.429 2.004-.524 2.004-.524 1.852-.081 2.332 2.175 2.332 2.57v5.328c0 1.617 1.334 1.379 1.493 1.332l.995-.348.37-.131 1.061-.378c1.211-.428 1.584.999 1.584.999.418 1.094 1.135 1.12 1.353 1.094 1.12-.027 1.673-1.163 1.725-1.332.39-.986-.419-1.57-.419-1.57l-4.711-3.616c-1.07-.827-1.158-2.496-1.165-2.769l-.001-.038c0-2.76 2.657-3.616 2.657-3.616l6.763-2.284.001.363v.129.638l-.001.155c.046.942.969.999 1.166.999a1.65 1.65 0 0 0 1.025-.476c1.773-3.263 5.427-4.319 5.952-4.456l.056-.014.007-.002-.047 1.998c-1.168.082-1.257 1.122-1.26 1.405l.001.062v.008 7.707c0 1.856 1.876 1.932 2.052 1.903 1.924-.078 2.052-1.822 2.052-2.188V39.567l1.632-.334c1.807-.232 2.369 1.971 2.332 2.712l-.001.414v.162 2.604.256l.001 2.034c.054 1.455 1.48 1.253 1.584 1.237 1.519-.019 2.379-5.827 2.379-6.994v-4.71l4.01-1.332v1.236c-.017 1.152 1.259.999 1.259.999 1.073 0 1.352-1.094 2.145-2.521.654-1.179 1.468-1.32 1.732-1.333h.086zm-57.508 8.319c1.133 0 2.051.931 2.051 2.08s-.918 2.08-2.051 2.08-2.05-.932-2.05-2.08.918-2.08 2.05-2.08z"/></svg>